<svg width="3192" height="3192" viewBox="0 0 3192 3192" fill="none" xmlns="http://www.w3.org/2000/svg">
<path d="M2307.96 1649.46C2307.69 1649.46 2307.47 1649.69 2307.47 1649.96C2307.49 1651.97 2307.5 1653.99 2307.5 1656C2307.5 1658.01 2307.49 1660.03 2307.47 1662.04C2307.47 1662.31 2307.69 1662.54 2307.96 1662.54C2307.92 1666.23 2307.84 1669.91 2307.73 1673.59C2307.46 1673.58 2307.23 1673.79 2307.22 1674.07C2307.09 1678.07 2306.92 1682.06 2306.72 1686.05C2306.7 1686.32 2306.91 1686.56 2307.19 1686.57C2306.99 1690.26 2306.76 1693.93 2306.5 1697.6C2306.22 1697.58 2305.98 1697.78 2305.96 1698.06C2305.67 1702.06 2305.33 1706.06 2304.96 1710.04C2304.93 1710.31 2305.13 1710.56 2305.41 1710.58C2305.06 1714.24 2304.68 1717.89 2304.26 1721.52C2303.98 1721.49 2303.74 1721.69 2303.7 1721.96C2303.24 1725.96 2302.74 1729.94 2302.19 1733.91C2302.16 1734.18 2302.35 1734.44 2302.62 1734.47C2302.12 1738.12 2301.58 1741.75 2301.01 1745.38C2300.74 1745.33 2300.48 1745.52 2300.44 1745.79C2299.81 1749.75 2299.14 1753.7 2298.43 1757.63C2298.38 1757.9 2298.56 1758.16 2298.83 1758.21C2298.17 1761.84 2297.48 1765.45 2296.76 1769.06C2296.49 1769 2296.22 1769.18 2296.17 1769.45C2295.37 1773.37 2294.54 1777.29 2293.66 1781.19C2293.6 1781.46 2293.77 1781.72 2294.04 1781.78C2293.23 1785.38 2292.39 1788.96 2291.52 1792.53C2291.25 1792.46 2290.98 1792.62 2290.91 1792.89C2289.95 1796.79 2288.95 1800.67 2287.91 1804.53C2287.84 1804.8 2288 1805.07 2288.27 1805.14C2287.31 1808.69 2286.32 1812.23 2285.29 1815.75C2285.03 1815.68 2284.75 1815.83 2284.67 1816.09C2283.55 1819.94 2282.39 1823.78 2281.19 1827.6C2281.11 1827.87 2281.25 1828.15 2281.52 1828.23C2280.41 1831.74 2279.28 1835.23 2278.11 1838.71C2277.84 1838.63 2277.56 1838.77 2277.47 1839.03C2276.19 1842.83 2274.87 1846.61 2273.52 1850.37C2273.42 1850.63 2273.56 1850.92 2273.82 1851.01C2272.57 1854.47 2271.29 1857.92 2269.97 1861.35C2269.71 1861.25 2269.43 1861.38 2269.33 1861.64C2267.89 1865.38 2266.42 1869.1 2264.91 1872.81C2264.8 1873.07 2264.93 1873.36 2265.18 1873.46C2263.79 1876.87 2262.37 1880.26 2260.92 1883.64C2260.66 1883.53 2260.37 1883.64 2260.26 1883.9C2258.67 1887.58 2257.05 1891.24 2255.39 1894.88C2255.27 1895.13 2255.38 1895.43 2255.64 1895.55C2254.11 1898.89 2252.55 1902.22 2250.96 1905.53C2250.71 1905.41 2250.41 1905.52 2250.29 1905.77C2248.56 1909.38 2246.79 1912.97 2244.98 1916.55C2244.86 1916.79 2244.96 1917.09 2245.2 1917.22C2243.54 1920.5 2241.85 1923.76 2240.13 1927.01C2239.89 1926.88 2239.58 1926.98 2239.45 1927.22C2237.58 1930.76 2235.66 1934.28 2233.72 1937.78C2233.58 1938.02 2233.67 1938.32 2233.91 1938.46C2232.12 1941.67 2230.3 1944.86 2228.46 1948.04C2228.22 1947.9 2227.91 1947.98 2227.77 1948.22C2225.75 1951.68 2223.7 1955.13 2221.62 1958.55C2221.47 1958.79 2221.55 1959.1 2221.78 1959.24C2219.87 1962.37 2217.93 1965.49 2215.96 1968.59C2215.73 1968.45 2215.42 1968.52 2215.27 1968.75C2213.12 1972.13 2210.94 1975.49 2208.72 1978.83C2208.57 1979.06 2208.63 1979.37 2208.86 1979.52C2206.83 1982.58 2204.76 1985.63 2202.67 1988.65C2202.45 1988.5 2202.14 1988.55 2201.98 1988.78C2199.7 1992.07 2197.39 1995.34 2195.05 1998.59C2194.89 1998.82 2194.94 1999.13 2195.17 1999.29C2193.01 2002.27 2190.84 2005.24 2188.63 2008.19C2188.41 2008.02 2188.1 2008.07 2187.93 2008.29C2185.53 2011.49 2183.1 2014.67 2180.64 2017.83C2180.47 2018.05 2180.51 2018.36 2180.72 2018.53C2178.46 2021.43 2176.18 2024.31 2173.86 2027.17C2173.65 2026.99 2173.34 2027.03 2173.16 2027.24C2170.64 2030.35 2168.09 2033.45 2165.5 2036.52C2165.33 2036.73 2165.35 2037.05 2165.56 2037.22C2163.2 2040.03 2160.81 2042.82 2158.4 2045.59C2158.19 2045.41 2157.87 2045.43 2157.69 2045.63C2155.06 2048.65 2152.39 2051.65 2149.7 2054.62C2149.52 2054.82 2149.53 2055.14 2149.74 2055.33C2147.27 2058.05 2144.77 2060.75 2142.26 2063.43C2142.05 2063.24 2141.74 2063.25 2141.55 2063.45C2138.81 2066.37 2136.04 2069.26 2133.25 2072.13C2133.05 2072.33 2133.06 2072.65 2133.25 2072.84C2130.69 2075.47 2128.09 2078.08 2125.48 2080.68C2125.28 2080.48 2124.97 2080.48 2124.77 2080.67C2121.93 2083.49 2119.06 2086.28 2116.16 2089.05C2115.96 2089.24 2115.95 2089.55 2116.15 2089.75C2113.49 2092.29 2110.81 2094.8 2108.1 2097.3C2107.92 2097.1 2107.6 2097.08 2107.4 2097.27C2104.45 2099.99 2101.48 2102.68 2098.48 2105.35C2098.27 2105.53 2098.25 2105.85 2098.44 2106.06C2095.69 2108.49 2092.93 2110.91 2090.15 2113.3C2089.97 2113.09 2089.65 2113.07 2089.44 2113.25C2086.4 2115.86 2083.34 2118.44 2080.25 2121C2080.04 2121.18 2080.01 2121.49 2080.18 2121.71C2077.35 2124.05 2074.5 2126.37 2071.63 2128.67C2071.46 2128.46 2071.14 2128.42 2070.93 2128.59C2067.8 2131.09 2064.66 2133.57 2061.49 2136.01C2061.27 2136.18 2061.23 2136.5 2061.4 2136.72C2058.48 2138.96 2055.55 2141.19 2052.6 2143.39C2052.43 2143.17 2052.12 2143.12 2051.9 2143.29C2048.69 2145.68 2045.46 2148.04 2042.21 2150.38C2041.98 2150.54 2041.93 2150.85 2042.09 2151.08C2039.11 2153.22 2036.11 2155.34 2033.09 2157.44C2032.93 2157.21 2032.62 2157.15 2032.39 2157.31C2029.1 2159.6 2025.78 2161.86 2022.44 2164.09C2022.21 2164.24 2022.15 2164.55 2022.3 2164.78C2019.25 2166.82 2016.18 2168.83 2013.1 2170.82C2012.95 2170.59 2012.64 2170.53 2012.41 2170.68C2009.04 2172.84 2005.66 2174.99 2002.25 2177.1C2002.01 2177.25 2001.94 2177.56 2002.09 2177.79C1998.96 2179.73 1995.82 2181.65 1992.66 2183.54C1992.52 2183.31 1992.21 2183.23 1991.97 2183.37C1988.55 2185.42 1985.1 2187.45 1981.63 2189.45C1981.39 2189.58 1981.3 2189.89 1981.44 2190.13C1978.26 2191.96 1975.05 2193.77 1971.83 2195.56C1971.7 2195.32 1971.39 2195.23 1971.15 2195.37C1967.65 2197.31 1964.13 2199.22 1960.59 2201.11C1960.35 2201.24 1960.25 2201.54 1960.38 2201.78C1957.15 2203.51 1953.89 2205.21 1950.62 2206.89C1950.5 2206.64 1950.2 2206.54 1949.95 2206.67C1946.38 2208.5 1942.8 2210.3 1939.19 2212.07C1938.94 2212.19 1938.84 2212.49 1938.96 2212.74C1935.67 2214.36 1932.36 2215.95 1929.04 2217.52C1928.92 2217.27 1928.62 2217.17 1928.37 2217.28C1924.75 2218.99 1921.12 2220.67 1917.47 2222.32C1917.21 2222.44 1917.1 2222.73 1917.22 2222.98C1913.86 2224.5 1910.49 2225.99 1907.11 2227.46C1907 2227.2 1906.71 2227.09 1906.45 2227.2C1902.79 2228.78 1899.1 2230.34 1895.4 2231.87C1895.15 2231.98 1895.03 2232.27 1895.13 2232.53C1891.74 2233.93 1888.33 2235.31 1884.91 2236.66C1884.81 2236.41 1884.52 2236.28 1884.26 2236.38C1880.53 2237.86 1876.79 2239.31 1873.02 2240.72C1872.76 2240.82 1872.63 2241.11 1872.73 2241.37C1869.3 2242.66 1865.86 2243.93 1862.41 2245.17C1862.32 2244.91 1862.03 2244.77 1861.77 2244.87C1858 2246.22 1854.22 2247.54 1850.42 2248.84C1850.16 2248.93 1850.02 2249.21 1850.11 2249.47C1846.63 2250.66 1843.13 2251.82 1839.63 2252.96C1839.54 2252.7 1839.26 2252.55 1839 2252.64C1835.2 2253.87 1831.38 2255.07 1827.56 2256.24C1827.29 2256.32 1827.14 2256.6 1827.22 2256.87C1823.71 2257.94 1820.19 2258.99 1816.65 2260.02C1816.57 2259.75 1816.29 2259.6 1816.03 2259.68C1812.18 2260.79 1808.32 2261.88 1804.44 2262.93C1804.18 2263.01 1804.02 2263.28 1804.09 2263.55C1800.56 2264.51 1797.01 2265.44 1793.45 2266.36C1793.38 2266.09 1793.11 2265.93 1792.84 2266C1788.96 2266.99 1785.07 2267.95 1781.16 2268.89C1780.89 2268.95 1780.73 2269.22 1780.79 2269.49C1777.22 2270.34 1773.64 2271.17 1770.04 2271.98C1769.98 2271.71 1769.72 2271.54 1769.45 2271.6C1765.55 2272.47 1761.64 2273.31 1757.71 2274.12C1757.44 2274.18 1757.27 2274.44 1757.33 2274.71C1753.73 2275.45 1750.11 2276.17 1746.49 2276.86C1746.44 2276.59 1746.18 2276.42 1745.91 2276.47C1741.98 2277.22 1738.04 2277.94 1734.08 2278.63C1733.81 2278.68 1733.63 2278.94 1733.68 2279.21C1730.07 2279.84 1726.45 2280.44 1722.82 2281.02C1722.77 2280.75 1722.52 2280.56 1722.25 2280.61C1718.29 2281.24 1714.32 2281.84 1710.34 2282.41C1710.07 2282.45 1709.88 2282.7 1709.92 2282.98C1706.28 2283.5 1702.64 2283.99 1698.99 2284.46C1698.96 2284.19 1698.71 2283.99 1698.43 2284.03C1694.47 2284.54 1690.5 2285.01 1686.52 2285.46C1686.24 2285.49 1686.04 2285.74 1686.08 2286.02C1682.42 2286.43 1678.76 2286.81 1675.09 2287.17C1675.06 2286.9 1674.81 2286.69 1674.54 2286.72C1670.56 2287.11 1666.57 2287.47 1662.57 2287.8C1662.3 2287.82 1662.09 2288.06 1662.11 2288.34C1658.46 2288.63 1654.8 2288.91 1651.14 2289.16C1651.12 2288.88 1650.88 2288.67 1650.6 2288.69C1646.61 2288.96 1642.6 2289.2 1638.58 2289.41C1638.31 2289.42 1638.09 2289.66 1638.11 2289.93C1634.44 2290.12 1630.77 2290.28 1627.1 2290.42C1627.08 2290.15 1626.85 2289.93 1626.58 2289.94C1622.59 2290.09 1618.59 2290.21 1614.58 2290.3C1614.31 2290.3 1614.09 2290.53 1614.09 2290.81C1610.42 2290.89 1606.73 2290.94 1603.04 2290.97C1603.04 2290.7 1602.82 2290.48 1602.54 2290.48C1600.53 2290.49 1598.52 2290.5 1596.5 2290.5C1594.48 2290.5 1592.47 2290.49 1590.46 2290.48C1590.18 2290.48 1589.96 2290.7 1589.96 2290.97C1586.27 2290.94 1582.58 2290.89 1578.9 2290.81C1578.91 2290.53 1578.69 2290.3 1578.42 2290.3C1574.41 2290.21 1570.41 2290.09 1566.42 2289.94C1566.15 2289.93 1565.91 2290.15 1565.9 2290.42C1562.23 2290.28 1558.55 2290.12 1554.89 2289.93C1554.91 2289.66 1554.69 2289.42 1554.42 2289.41C1550.4 2289.2 1546.39 2288.96 1542.39 2288.69C1542.12 2288.67 1541.88 2288.88 1541.86 2289.16C1538.2 2288.91 1534.54 2288.63 1530.88 2288.34C1530.91 2288.06 1530.7 2287.82 1530.43 2287.8C1526.43 2287.47 1522.44 2287.11 1518.46 2286.72C1518.19 2286.69 1517.94 2286.9 1517.91 2287.17C1514.24 2286.81 1510.58 2286.43 1506.92 2286.02C1506.95 2285.74 1506.76 2285.49 1506.48 2285.46C1502.5 2285.01 1498.53 2284.54 1494.57 2284.03C1494.29 2283.99 1494.04 2284.19 1494.01 2284.46C1490.36 2283.99 1486.72 2283.5 1483.08 2282.98C1483.12 2282.7 1482.93 2282.45 1482.66 2282.41C1478.68 2281.84 1474.71 2281.24 1470.75 2280.61C1470.48 2280.56 1470.22 2280.75 1470.18 2281.02C1466.55 2280.44 1462.93 2279.84 1459.32 2279.21C1459.37 2278.94 1459.19 2278.68 1458.92 2278.63C1454.96 2277.94 1451.02 2277.22 1447.09 2276.47C1446.82 2276.42 1446.56 2276.59 1446.51 2276.86C1442.89 2276.17 1439.27 2275.45 1435.67 2274.71C1435.73 2274.44 1435.56 2274.18 1435.29 2274.12C1431.36 2273.31 1427.45 2272.47 1423.55 2271.6C1423.28 2271.54 1423.02 2271.71 1422.96 2271.98C1419.36 2271.17 1415.78 2270.34 1412.21 2269.49C1412.27 2269.22 1412.1 2268.95 1411.84 2268.89C1407.93 2267.95 1404.04 2266.99 1400.16 2266C1399.89 2265.93 1399.62 2266.09 1399.55 2266.36C1395.99 2265.44 1392.44 2264.51 1388.91 2263.55C1388.98 2263.28 1388.82 2263.01 1388.56 2262.93C1384.68 2261.88 1380.82 2260.79 1376.97 2259.68C1376.71 2259.6 1376.43 2259.75 1376.35 2260.02C1372.81 2258.99 1369.29 2257.94 1365.77 2256.87C1365.86 2256.6 1365.71 2256.32 1365.44 2256.24C1361.61 2255.07 1357.8 2253.87 1354 2252.64C1353.74 2252.55 1353.46 2252.7 1353.37 2252.96C1349.87 2251.82 1346.37 2250.66 1342.89 2249.47C1342.98 2249.21 1342.84 2248.93 1342.58 2248.84C1338.78 2247.54 1335 2246.22 1331.23 2244.87C1330.97 2244.77 1330.68 2244.91 1330.59 2245.17C1327.14 2243.92 1323.7 2242.66 1320.27 2241.37C1320.37 2241.11 1320.24 2240.82 1319.98 2240.72C1316.21 2239.31 1312.47 2237.86 1308.74 2236.38C1308.48 2236.28 1308.19 2236.41 1308.09 2236.66C1304.67 2235.31 1301.26 2233.93 1297.87 2232.53C1297.97 2232.27 1297.85 2231.98 1297.6 2231.87C1293.9 2230.34 1290.21 2228.78 1286.55 2227.2C1286.29 2227.09 1286 2227.2 1285.89 2227.46C1282.51 2225.99 1279.14 2224.5 1275.78 2222.98C1275.9 2222.73 1275.79 2222.43 1275.53 2222.32C1271.88 2220.67 1268.25 2218.99 1264.63 2217.28C1264.38 2217.17 1264.08 2217.27 1263.96 2217.52C1260.64 2215.95 1257.33 2214.36 1254.04 2212.74C1254.16 2212.49 1254.06 2212.19 1253.81 2212.07C1250.2 2210.3 1246.62 2208.5 1243.05 2206.67C1242.8 2206.54 1242.5 2206.64 1242.38 2206.89C1239.11 2205.21 1235.85 2203.51 1232.62 2201.78C1232.75 2201.54 1232.65 2201.24 1232.41 2201.11C1228.87 2199.22 1225.35 2197.31 1221.85 2195.37C1221.6 2195.23 1221.3 2195.32 1221.17 2195.56C1217.95 2193.77 1214.74 2191.96 1211.56 2190.13C1211.7 2189.89 1211.61 2189.58 1211.37 2189.45C1207.9 2187.45 1204.45 2185.42 1201.03 2183.37C1200.79 2183.23 1200.48 2183.3 1200.34 2183.54C1197.18 2181.65 1194.04 2179.73 1190.91 2177.79C1191.06 2177.56 1190.99 2177.25 1190.75 2177.1C1187.34 2174.99 1183.96 2172.84 1180.59 2170.67C1180.36 2170.53 1180.05 2170.59 1179.9 2170.82C1176.82 2168.83 1173.75 2166.82 1170.7 2164.78C1170.85 2164.55 1170.79 2164.24 1170.56 2164.09C1167.22 2161.86 1163.9 2159.6 1160.61 2157.31C1160.38 2157.15 1160.07 2157.21 1159.91 2157.44C1156.89 2155.34 1153.89 2153.22 1150.91 2151.08C1151.07 2150.85 1151.02 2150.54 1150.79 2150.38C1147.54 2148.04 1144.31 2145.68 1141.1 2143.29C1140.88 2143.12 1140.57 2143.17 1140.4 2143.39C1137.45 2141.19 1134.52 2138.96 1131.6 2136.72C1131.77 2136.5 1131.73 2136.18 1131.51 2136.01C1128.34 2133.57 1125.2 2131.09 1122.07 2128.59C1121.86 2128.42 1121.54 2128.46 1121.37 2128.67C1118.5 2126.37 1115.65 2124.05 1112.82 2121.71C1112.99 2121.49 1112.96 2121.18 1112.75 2121C1109.66 2118.44 1106.6 2115.86 1103.56 2113.25C1103.35 2113.07 1103.03 2113.09 1102.85 2113.3C1100.07 2110.91 1097.3 2108.49 1094.56 2106.05C1094.75 2105.85 1094.73 2105.53 1094.52 2105.35C1091.52 2102.68 1088.55 2099.99 1085.6 2097.27C1085.4 2097.08 1085.08 2097.1 1084.89 2097.3C1082.19 2094.8 1079.51 2092.29 1076.85 2089.75C1077.04 2089.55 1077.04 2089.24 1076.84 2089.05C1073.94 2086.28 1071.07 2083.49 1068.23 2080.67C1068.03 2080.48 1067.72 2080.48 1067.52 2080.68C1064.91 2078.08 1062.31 2075.47 1059.75 2072.84C1059.94 2072.65 1059.95 2072.33 1059.75 2072.13C1056.96 2069.26 1054.19 2066.37 1051.45 2063.45C1051.26 2063.25 1050.94 2063.24 1050.74 2063.43C1048.23 2060.75 1045.73 2058.05 1043.26 2055.33C1043.47 2055.14 1043.48 2054.82 1043.3 2054.62C1040.61 2051.65 1037.94 2048.65 1035.31 2045.63C1035.13 2045.43 1034.81 2045.4 1034.6 2045.59C1032.19 2042.82 1029.8 2040.03 1027.43 2037.22C1027.65 2037.04 1027.67 2036.73 1027.5 2036.52C1024.91 2033.45 1022.36 2030.35 1019.84 2027.24C1019.66 2027.02 1019.35 2026.99 1019.13 2027.17C1016.82 2024.31 1014.54 2021.43 1012.28 2018.53C1012.49 2018.36 1012.53 2018.05 1012.36 2017.83C1009.9 2014.67 1007.47 2011.49 1005.07 2008.29C1004.9 2008.06 1004.59 2008.02 1004.37 2008.19C1002.16 2005.24 999.985 2002.27 997.834 1999.29C998.058 1999.13 998.109 1998.82 997.947 1998.59C995.606 1995.34 993.297 1992.07 991.02 1988.78C990.863 1988.55 990.552 1988.5 990.325 1988.65C988.235 1985.63 986.172 1982.58 984.138 1979.52C984.368 1979.37 984.431 1979.06 984.278 1978.83C982.062 1975.49 979.878 1972.13 977.729 1968.75C977.581 1968.51 977.272 1968.45 977.039 1968.59C975.069 1965.49 973.128 1962.37 971.215 1959.24C971.451 1959.09 971.526 1958.79 971.382 1958.55C969.296 1955.13 967.245 1951.68 965.228 1948.22C965.089 1947.98 964.783 1947.9 964.545 1948.04C962.697 1944.86 960.878 1941.67 959.089 1938.46C959.33 1938.32 959.417 1938.02 959.283 1937.78C957.335 1934.28 955.422 1930.76 953.545 1927.22C953.416 1926.98 953.113 1926.88 952.869 1927.01C951.148 1923.76 949.457 1920.5 947.797 1917.22C948.043 1917.09 948.142 1916.79 948.017 1916.55C946.211 1912.97 944.44 1909.38 942.706 1905.77C942.586 1905.52 942.287 1905.41 942.039 1905.53C940.45 1902.22 938.892 1898.89 937.365 1895.54C937.616 1895.43 937.727 1895.13 937.612 1894.88C935.951 1891.24 934.327 1887.57 932.74 1883.9C932.63 1883.64 932.336 1883.53 932.083 1883.64C930.629 1880.26 929.207 1876.87 927.817 1873.46C928.073 1873.36 928.196 1873.07 928.092 1872.81C926.581 1869.1 925.108 1865.38 923.673 1861.64C923.574 1861.38 923.285 1861.25 923.027 1861.35C921.713 1857.92 920.431 1854.47 919.182 1851.01C919.442 1850.92 919.576 1850.63 919.483 1850.37C918.126 1846.61 916.807 1842.82 915.528 1839.03C915.439 1838.77 915.156 1838.63 914.894 1838.71C913.724 1835.23 912.586 1831.74 911.482 1828.23C911.745 1828.15 911.892 1827.87 911.809 1827.6C910.608 1823.78 909.447 1819.94 908.325 1816.09C908.248 1815.83 907.97 1815.67 907.705 1815.75C906.682 1812.23 905.691 1808.69 904.735 1805.14C905.001 1805.07 905.159 1804.8 905.088 1804.53C904.049 1800.66 903.049 1796.78 902.09 1792.89C902.024 1792.62 901.753 1792.46 901.485 1792.53C900.608 1788.96 899.766 1785.37 898.957 1781.78C899.226 1781.72 899.396 1781.45 899.335 1781.19C898.461 1777.29 897.626 1773.37 896.832 1769.45C896.778 1769.18 896.514 1769 896.243 1769.06C895.518 1765.45 894.826 1761.84 894.169 1758.21C894.441 1758.16 894.621 1757.9 894.572 1757.63C893.862 1753.7 893.193 1749.75 892.564 1745.79C892.521 1745.52 892.265 1745.33 891.992 1745.37C891.42 1741.75 890.883 1738.12 890.379 1734.47C890.653 1734.44 890.844 1734.18 890.807 1733.91C890.262 1729.94 889.758 1725.96 889.296 1721.96C889.264 1721.69 889.016 1721.49 888.742 1721.52C888.324 1717.88 887.94 1714.24 887.592 1710.58C887.867 1710.56 888.068 1710.31 888.042 1710.04C887.666 1706.05 887.331 1702.06 887.037 1698.06C887.017 1697.78 886.778 1697.58 886.502 1697.6C886.237 1693.93 886.006 1690.26 885.81 1686.57C886.086 1686.56 886.298 1686.32 886.283 1686.05C886.075 1682.06 885.908 1678.07 885.783 1674.07C885.774 1673.79 885.543 1673.58 885.268 1673.59C885.156 1669.91 885.079 1666.23 885.037 1662.54C885.313 1662.54 885.534 1662.31 885.532 1662.04C885.511 1660.03 885.5 1658.01 885.5 1656C885.5 1653.99 885.511 1651.97 885.532 1649.96C885.534 1649.69 885.313 1649.46 885.037 1649.46C885.079 1645.77 885.156 1642.09 885.268 1638.41C885.543 1638.42 885.774 1638.21 885.783 1637.93C885.908 1633.93 886.075 1629.94 886.283 1625.95C886.298 1625.68 886.086 1625.44 885.81 1625.43C886.006 1621.74 886.237 1618.07 886.502 1614.4C886.778 1614.42 887.017 1614.22 887.037 1613.94C887.331 1609.94 887.666 1605.94 888.042 1601.96C888.068 1601.69 887.867 1601.44 887.592 1601.42C887.941 1597.76 888.324 1594.11 888.742 1590.48C889.016 1590.51 889.264 1590.31 889.296 1590.04C889.758 1586.04 890.262 1582.06 890.807 1578.09C890.844 1577.82 890.653 1577.56 890.38 1577.53C890.883 1573.88 891.42 1570.25 891.992 1566.62C892.265 1566.67 892.521 1566.48 892.564 1566.21C893.193 1562.25 893.862 1558.3 894.572 1554.37C894.621 1554.1 894.441 1553.84 894.169 1553.79C894.826 1550.16 895.518 1546.55 896.243 1542.94C896.514 1543 896.778 1542.82 896.832 1542.55C897.627 1538.63 898.461 1534.71 899.336 1530.81C899.396 1530.54 899.227 1530.28 898.957 1530.22C899.766 1526.62 900.609 1523.04 901.485 1519.47C901.753 1519.54 902.024 1519.38 902.09 1519.11C903.049 1515.21 904.049 1511.33 905.088 1507.47C905.159 1507.2 905.001 1506.93 904.735 1506.86C905.692 1503.31 906.682 1499.77 907.705 1496.25C907.97 1496.32 908.248 1496.17 908.325 1495.91C909.447 1492.06 910.608 1488.22 911.809 1484.4C911.892 1484.13 911.745 1483.85 911.482 1483.77C912.587 1480.26 913.724 1476.77 914.894 1473.29C915.156 1473.37 915.44 1473.23 915.528 1472.97C916.808 1469.17 918.126 1465.39 919.483 1461.63C919.577 1461.37 919.442 1461.08 919.182 1460.99C920.432 1457.53 921.713 1454.08 923.027 1450.65C923.285 1450.75 923.574 1450.62 923.673 1450.36C925.108 1446.62 926.581 1442.9 928.092 1439.19C928.196 1438.93 928.073 1438.64 927.817 1438.54C929.208 1435.13 930.63 1431.74 932.083 1428.36C932.336 1428.47 932.631 1428.36 932.74 1428.1C934.327 1424.42 935.951 1420.76 937.613 1417.12C937.727 1416.87 937.616 1416.57 937.365 1416.45C938.892 1413.11 940.45 1409.78 942.039 1406.47C942.288 1406.59 942.587 1406.48 942.706 1406.23C944.44 1402.62 946.211 1399.03 948.018 1395.45C948.142 1395.21 948.043 1394.91 947.797 1394.78C949.458 1391.5 951.149 1388.24 952.869 1384.99C953.113 1385.12 953.416 1385.02 953.546 1384.78C955.423 1381.24 957.335 1377.72 959.283 1374.22C959.417 1373.98 959.33 1373.68 959.089 1373.54C960.878 1370.33 962.697 1367.14 964.545 1363.96C964.783 1364.1 965.09 1364.02 965.229 1363.78C967.245 1360.32 969.297 1356.87 971.382 1353.45C971.526 1353.21 971.451 1352.9 971.215 1352.76C973.128 1349.63 975.069 1346.51 977.039 1343.41C977.272 1343.55 977.581 1343.48 977.729 1343.25C979.879 1339.87 982.062 1336.51 984.279 1333.17C984.431 1332.94 984.368 1332.63 984.138 1332.48C986.173 1329.42 988.235 1326.37 990.325 1323.35C990.552 1323.5 990.864 1323.45 991.021 1323.22C993.297 1319.93 995.606 1316.66 997.948 1313.41C998.109 1313.18 998.058 1312.87 997.834 1312.71C999.985 1309.73 1002.16 1306.76 1004.37 1303.81C1004.59 1303.98 1004.9 1303.93 1005.07 1303.71C1007.47 1300.51 1009.9 1297.33 1012.36 1294.17C1012.53 1293.95 1012.49 1293.64 1012.28 1293.47C1014.54 1290.57 1016.82 1287.69 1019.14 1284.83C1019.35 1285.01 1019.66 1284.97 1019.84 1284.76C1022.36 1281.65 1024.91 1278.55 1027.5 1275.48C1027.67 1275.27 1027.65 1274.95 1027.44 1274.78C1029.8 1271.97 1032.19 1269.18 1034.6 1266.41C1034.81 1266.6 1035.13 1266.57 1035.31 1266.37C1037.94 1263.35 1040.61 1260.35 1043.3 1257.38C1043.48 1257.18 1043.47 1256.86 1043.26 1256.67C1045.73 1253.95 1048.23 1251.25 1050.74 1248.57C1050.95 1248.76 1051.26 1248.75 1051.45 1248.55C1054.19 1245.63 1056.96 1242.74 1059.75 1239.87C1059.95 1239.67 1059.94 1239.35 1059.75 1239.16C1062.31 1236.53 1064.91 1233.92 1067.52 1231.32C1067.72 1231.52 1068.03 1231.52 1068.23 1231.33C1071.07 1228.51 1073.94 1225.72 1076.84 1222.95C1077.04 1222.76 1077.05 1222.45 1076.85 1222.25C1079.51 1219.71 1082.19 1217.2 1084.9 1214.7C1085.08 1214.9 1085.4 1214.92 1085.6 1214.73C1088.55 1212.01 1091.52 1209.32 1094.52 1206.65C1094.73 1206.47 1094.75 1206.15 1094.56 1205.94C1097.31 1203.51 1100.07 1201.09 1102.85 1198.7C1103.03 1198.91 1103.35 1198.93 1103.56 1198.75C1106.6 1196.14 1109.66 1193.56 1112.75 1191C1112.96 1190.82 1112.99 1190.51 1112.82 1190.29C1115.65 1187.95 1118.5 1185.63 1121.37 1183.33C1121.54 1183.54 1121.86 1183.58 1122.07 1183.41C1125.2 1180.91 1128.34 1178.43 1131.51 1175.99C1131.73 1175.82 1131.77 1175.5 1131.6 1175.28C1134.52 1173.04 1137.45 1170.81 1140.4 1168.61C1140.57 1168.83 1140.88 1168.88 1141.1 1168.71C1144.31 1166.32 1147.54 1163.96 1150.79 1161.62C1151.02 1161.46 1151.07 1161.15 1150.91 1160.92C1153.89 1158.78 1156.89 1156.66 1159.91 1154.56C1160.07 1154.79 1160.38 1154.85 1160.61 1154.69C1163.9 1152.4 1167.22 1150.14 1170.56 1147.91C1170.79 1147.76 1170.85 1147.45 1170.7 1147.22C1173.75 1145.18 1176.82 1143.17 1179.9 1141.18C1180.05 1141.41 1180.36 1141.47 1180.59 1141.32C1183.96 1139.16 1187.34 1137.01 1190.75 1134.9C1190.99 1134.75 1191.06 1134.44 1190.91 1134.21C1194.04 1132.27 1197.18 1130.35 1200.34 1128.46C1200.48 1128.69 1200.79 1128.77 1201.03 1128.63C1204.45 1126.58 1207.9 1124.55 1211.37 1122.55C1211.61 1122.42 1211.7 1122.11 1211.56 1121.87C1214.74 1120.04 1217.95 1118.23 1221.17 1116.44C1221.3 1116.68 1221.61 1116.77 1221.85 1116.63C1225.35 1114.69 1228.87 1112.78 1232.41 1110.89C1232.65 1110.76 1232.75 1110.46 1232.62 1110.22C1235.85 1108.49 1239.11 1106.79 1242.38 1105.11C1242.5 1105.36 1242.8 1105.46 1243.05 1105.33C1246.62 1103.5 1250.2 1101.7 1253.81 1099.93C1254.06 1099.81 1254.16 1099.51 1254.04 1099.26C1257.33 1097.64 1260.64 1096.05 1263.96 1094.48C1264.08 1094.73 1264.38 1094.83 1264.63 1094.72C1268.25 1093.01 1271.88 1091.33 1275.53 1089.68C1275.79 1089.56 1275.9 1089.27 1275.78 1089.02C1279.14 1087.5 1282.51 1086.01 1285.89 1084.54C1286 1084.8 1286.29 1084.91 1286.55 1084.8C1290.21 1083.22 1293.9 1081.66 1297.6 1080.13C1297.85 1080.02 1297.97 1079.73 1297.87 1079.47C1301.26 1078.07 1304.67 1076.69 1308.09 1075.34C1308.19 1075.59 1308.48 1075.72 1308.74 1075.62C1312.47 1074.14 1316.21 1072.69 1319.98 1071.28C1320.24 1071.18 1320.37 1070.89 1320.27 1070.63C1323.7 1069.34 1327.14 1068.08 1330.59 1066.83C1330.68 1067.09 1330.97 1067.23 1331.23 1067.13C1335 1065.78 1338.78 1064.46 1342.58 1063.16C1342.84 1063.07 1342.98 1062.79 1342.89 1062.53C1346.37 1061.34 1349.87 1060.18 1353.37 1059.04C1353.46 1059.3 1353.74 1059.45 1354 1059.36C1357.8 1058.13 1361.62 1056.93 1365.44 1055.76C1365.71 1055.68 1365.86 1055.4 1365.78 1055.13C1369.29 1054.06 1372.81 1053.01 1376.35 1051.98C1376.43 1052.25 1376.71 1052.4 1376.97 1052.32C1380.82 1051.21 1384.68 1050.12 1388.56 1049.07C1388.82 1048.99 1388.98 1048.72 1388.91 1048.45C1392.44 1047.49 1395.99 1046.56 1399.55 1045.64C1399.62 1045.91 1399.89 1046.07 1400.16 1046C1404.04 1045.01 1407.93 1044.05 1411.84 1043.11C1412.11 1043.05 1412.27 1042.78 1412.21 1042.51C1415.78 1041.66 1419.36 1040.83 1422.96 1040.02C1423.02 1040.29 1423.28 1040.46 1423.55 1040.4C1427.45 1039.53 1431.36 1038.69 1435.29 1037.88C1435.56 1037.82 1435.73 1037.56 1435.67 1037.29C1439.27 1036.55 1442.89 1035.83 1446.51 1035.14C1446.56 1035.41 1446.82 1035.58 1447.09 1035.53C1451.02 1034.78 1454.96 1034.06 1458.92 1033.37C1459.19 1033.32 1459.37 1033.06 1459.32 1032.79C1462.93 1032.16 1466.55 1031.56 1470.18 1030.98C1470.23 1031.25 1470.48 1031.44 1470.75 1031.39C1474.71 1030.76 1478.68 1030.16 1482.66 1029.59C1482.93 1029.55 1483.12 1029.3 1483.08 1029.02C1486.72 1028.5 1490.36 1028.01 1494.01 1027.54C1494.04 1027.81 1494.29 1028.01 1494.57 1027.97C1498.53 1027.46 1502.5 1026.99 1506.48 1026.54C1506.76 1026.51 1506.95 1026.26 1506.92 1025.98C1510.58 1025.57 1514.24 1025.19 1517.91 1024.83C1517.94 1025.1 1518.19 1025.31 1518.46 1025.28C1522.44 1024.89 1526.43 1024.53 1530.43 1024.2C1530.7 1024.18 1530.91 1023.94 1530.89 1023.66C1534.54 1023.37 1538.2 1023.09 1541.86 1022.84C1541.88 1023.12 1542.12 1023.33 1542.4 1023.31C1546.39 1023.04 1550.4 1022.8 1554.42 1022.59C1554.69 1022.58 1554.91 1022.34 1554.89 1022.07C1558.56 1021.88 1562.23 1021.72 1565.9 1021.58C1565.92 1021.85 1566.15 1022.07 1566.42 1022.06C1570.41 1021.91 1574.41 1021.79 1578.42 1021.7C1578.69 1021.7 1578.91 1021.47 1578.91 1021.19C1582.58 1021.11 1586.27 1021.06 1589.96 1021.03C1589.96 1021.3 1590.18 1021.52 1590.46 1021.52C1592.47 1021.51 1594.48 1021.5 1596.5 1021.5C1598.52 1021.5 1600.53 1021.51 1602.54 1021.52C1602.82 1021.52 1603.04 1021.3 1603.04 1021.03C1606.73 1021.06 1610.42 1021.11 1614.1 1021.19C1614.09 1021.47 1614.31 1021.7 1614.58 1021.7C1618.59 1021.79 1622.59 1021.91 1626.58 1022.06C1626.85 1022.07 1627.09 1021.85 1627.1 1021.58C1630.77 1021.72 1634.44 1021.88 1638.11 1022.07C1638.09 1022.34 1638.31 1022.58 1638.58 1022.59C1642.6 1022.8 1646.61 1023.04 1650.61 1023.31C1650.88 1023.33 1651.12 1023.12 1651.14 1022.84C1654.8 1023.09 1658.46 1023.37 1662.12 1023.66C1662.09 1023.94 1662.3 1024.18 1662.57 1024.2C1666.57 1024.53 1670.56 1024.89 1674.54 1025.28C1674.81 1025.31 1675.06 1025.1 1675.09 1024.83C1678.76 1025.19 1682.42 1025.57 1686.08 1025.98C1686.05 1026.26 1686.24 1026.51 1686.52 1026.54C1690.5 1026.99 1694.47 1027.46 1698.43 1027.97C1698.71 1028.01 1698.96 1027.81 1698.99 1027.54C1702.64 1028.01 1706.28 1028.5 1709.92 1029.02C1709.88 1029.3 1710.07 1029.55 1710.34 1029.59C1714.32 1030.16 1718.29 1030.76 1722.25 1031.39C1722.52 1031.44 1722.78 1031.25 1722.82 1030.98C1726.45 1031.56 1730.07 1032.16 1733.68 1032.79C1733.63 1033.06 1733.81 1033.32 1734.08 1033.37C1738.04 1034.06 1741.98 1034.78 1745.91 1035.53C1746.18 1035.58 1746.44 1035.41 1746.49 1035.14C1750.11 1035.83 1753.73 1036.55 1757.33 1037.29C1757.27 1037.56 1757.44 1037.82 1757.71 1037.88C1761.64 1038.69 1765.55 1039.53 1769.45 1040.4C1769.72 1040.46 1769.98 1040.29 1770.04 1040.02C1773.64 1040.83 1777.22 1041.66 1780.79 1042.51C1780.73 1042.78 1780.9 1043.05 1781.16 1043.11C1785.07 1044.05 1788.96 1045.01 1792.84 1046C1793.11 1046.07 1793.38 1045.91 1793.45 1045.64C1797.01 1046.56 1800.56 1047.49 1804.09 1048.45C1804.02 1048.72 1804.18 1048.99 1804.44 1049.07C1808.32 1050.12 1812.18 1051.21 1816.03 1052.32C1816.29 1052.4 1816.57 1052.25 1816.65 1051.98C1820.19 1053.01 1823.71 1054.06 1827.23 1055.13C1827.14 1055.4 1827.29 1055.68 1827.56 1055.76C1831.39 1056.93 1835.2 1058.13 1839 1059.36C1839.26 1059.45 1839.54 1059.3 1839.63 1059.04C1843.13 1060.18 1846.63 1061.34 1850.11 1062.53C1850.02 1062.79 1850.16 1063.07 1850.42 1063.16C1854.22 1064.46 1858 1065.78 1861.77 1067.13C1862.03 1067.23 1862.32 1067.09 1862.41 1066.83C1865.86 1068.08 1869.3 1069.34 1872.73 1070.63C1872.63 1070.89 1872.76 1071.18 1873.02 1071.28C1876.79 1072.69 1880.53 1074.14 1884.26 1075.62C1884.52 1075.72 1884.81 1075.59 1884.91 1075.34C1888.33 1076.69 1891.74 1078.07 1895.13 1079.47C1895.03 1079.73 1895.15 1080.02 1895.4 1080.13C1899.1 1081.66 1902.79 1083.22 1906.45 1084.8C1906.71 1084.91 1907 1084.8 1907.11 1084.54C1910.49 1086.01 1913.86 1087.5 1917.22 1089.02C1917.1 1089.27 1917.21 1089.57 1917.47 1089.68C1921.12 1091.33 1924.75 1093.01 1928.37 1094.72C1928.62 1094.83 1928.92 1094.73 1929.04 1094.48C1932.36 1096.05 1935.67 1097.64 1938.96 1099.26C1938.84 1099.51 1938.94 1099.81 1939.19 1099.93C1942.8 1101.7 1946.38 1103.5 1949.95 1105.33C1950.2 1105.46 1950.5 1105.36 1950.62 1105.11C1953.89 1106.79 1957.15 1108.49 1960.38 1110.22C1960.25 1110.46 1960.35 1110.76 1960.59 1110.89C1964.13 1112.78 1967.65 1114.69 1971.15 1116.63C1971.4 1116.77 1971.7 1116.68 1971.83 1116.44C1975.05 1118.23 1978.26 1120.04 1981.44 1121.87C1981.3 1122.11 1981.39 1122.42 1981.63 1122.55C1985.1 1124.55 1988.55 1126.58 1991.97 1128.63C1992.21 1128.77 1992.52 1128.7 1992.66 1128.46C1995.82 1130.35 1998.96 1132.27 2002.09 1134.21C2001.94 1134.44 2002.02 1134.75 2002.25 1134.9C2005.66 1137.01 2009.04 1139.16 2012.41 1141.33C2012.64 1141.47 2012.95 1141.41 2013.1 1141.18C2016.18 1143.17 2019.25 1145.18 2022.3 1147.22C2022.15 1147.45 2022.21 1147.76 2022.44 1147.91C2025.78 1150.14 2029.1 1152.4 2032.39 1154.69C2032.62 1154.85 2032.93 1154.79 2033.09 1154.56C2036.11 1156.66 2039.11 1158.78 2042.09 1160.92C2041.93 1161.15 2041.98 1161.46 2042.21 1161.62C2045.46 1163.96 2048.69 1166.32 2051.9 1168.71C2052.12 1168.88 2052.43 1168.83 2052.6 1168.61C2055.55 1170.81 2058.48 1173.04 2061.4 1175.28C2061.23 1175.5 2061.27 1175.82 2061.49 1175.99C2064.66 1178.43 2067.8 1180.91 2070.93 1183.41C2071.14 1183.58 2071.46 1183.54 2071.63 1183.33C2074.5 1185.63 2077.35 1187.95 2080.18 1190.29C2080.01 1190.51 2080.04 1190.82 2080.25 1191C2083.34 1193.56 2086.4 1196.14 2089.44 1198.75C2089.65 1198.93 2089.97 1198.91 2090.15 1198.7C2092.93 1201.09 2095.7 1203.51 2098.44 1205.95C2098.25 1206.15 2098.27 1206.47 2098.48 1206.65C2101.48 1209.32 2104.45 1212.01 2107.4 1214.73C2107.6 1214.92 2107.92 1214.9 2108.11 1214.7C2110.81 1217.2 2113.49 1219.71 2116.15 1222.25C2115.96 1222.45 2115.96 1222.76 2116.16 1222.95C2119.06 1225.72 2121.93 1228.51 2124.77 1231.33C2124.97 1231.52 2125.28 1231.52 2125.48 1231.32C2128.09 1233.92 2130.69 1236.53 2133.26 1239.16C2133.06 1239.35 2133.05 1239.67 2133.25 1239.87C2136.04 1242.74 2138.81 1245.63 2141.55 1248.55C2141.74 1248.75 2142.06 1248.76 2142.26 1248.57C2144.77 1251.25 2147.27 1253.95 2149.74 1256.67C2149.53 1256.86 2149.52 1257.18 2149.7 1257.38C2152.39 1260.35 2155.06 1263.35 2157.69 1266.37C2157.87 1266.57 2158.19 1266.6 2158.4 1266.41C2160.81 1269.18 2163.2 1271.97 2165.56 1274.78C2165.35 1274.96 2165.33 1275.27 2165.5 1275.48C2168.09 1278.55 2170.64 1281.65 2173.16 1284.76C2173.34 1284.98 2173.65 1285.01 2173.87 1284.83C2176.18 1287.69 2178.46 1290.57 2180.72 1293.47C2180.51 1293.64 2180.47 1293.95 2180.64 1294.17C2183.1 1297.33 2185.53 1300.51 2187.93 1303.71C2188.1 1303.94 2188.41 1303.98 2188.63 1303.81C2190.84 1306.76 2193.01 1309.73 2195.17 1312.71C2194.94 1312.87 2194.89 1313.18 2195.05 1313.41C2197.39 1316.66 2199.7 1319.93 2201.98 1323.22C2202.14 1323.45 2202.45 1323.5 2202.68 1323.35C2204.77 1326.37 2206.83 1329.42 2208.86 1332.48C2208.63 1332.63 2208.57 1332.94 2208.72 1333.17C2210.94 1336.51 2213.12 1339.87 2215.27 1343.25C2215.42 1343.49 2215.73 1343.55 2215.96 1343.41C2217.93 1346.51 2219.87 1349.63 2221.78 1352.76C2221.55 1352.91 2221.47 1353.21 2221.62 1353.45C2223.7 1356.87 2225.76 1360.32 2227.77 1363.78C2227.91 1364.02 2228.22 1364.1 2228.46 1363.96C2230.3 1367.14 2232.12 1370.33 2233.91 1373.54C2233.67 1373.68 2233.58 1373.98 2233.72 1374.22C2235.67 1377.72 2237.58 1381.24 2239.45 1384.78C2239.58 1385.02 2239.89 1385.12 2240.13 1384.99C2241.85 1388.24 2243.54 1391.5 2245.2 1394.78C2244.96 1394.91 2244.86 1395.21 2244.98 1395.45C2246.79 1399.03 2248.56 1402.62 2250.29 1406.23C2250.41 1406.48 2250.71 1406.59 2250.96 1406.47C2252.55 1409.78 2254.11 1413.11 2255.64 1416.46C2255.38 1416.57 2255.27 1416.87 2255.39 1417.12C2257.05 1420.76 2258.67 1424.43 2260.26 1428.1C2260.37 1428.36 2260.66 1428.47 2260.92 1428.36C2262.37 1431.74 2263.79 1435.13 2265.18 1438.54C2264.93 1438.64 2264.8 1438.93 2264.91 1439.19C2266.42 1442.9 2267.89 1446.62 2269.33 1450.36C2269.43 1450.62 2269.72 1450.75 2269.97 1450.65C2271.29 1454.08 2272.57 1457.53 2273.82 1460.99C2273.56 1461.08 2273.42 1461.37 2273.52 1461.63C2274.87 1465.39 2276.19 1469.18 2277.47 1472.97C2277.56 1473.23 2277.84 1473.37 2278.11 1473.29C2279.28 1476.77 2280.41 1480.26 2281.52 1483.77C2281.25 1483.85 2281.11 1484.13 2281.19 1484.4C2282.39 1488.22 2283.55 1492.06 2284.68 1495.91C2284.75 1496.17 2285.03 1496.33 2285.3 1496.25C2286.32 1499.77 2287.31 1503.31 2288.27 1506.86C2288 1506.93 2287.84 1507.2 2287.91 1507.47C2288.95 1511.34 2289.95 1515.22 2290.91 1519.11C2290.98 1519.38 2291.25 1519.54 2291.52 1519.47C2292.39 1523.04 2293.23 1526.63 2294.04 1530.22C2293.77 1530.28 2293.6 1530.55 2293.66 1530.81C2294.54 1534.71 2295.37 1538.63 2296.17 1542.55C2296.22 1542.82 2296.49 1543 2296.76 1542.94C2297.48 1546.55 2298.17 1550.16 2298.83 1553.79C2298.56 1553.84 2298.38 1554.1 2298.43 1554.37C2299.14 1558.3 2299.81 1562.25 2300.44 1566.21C2300.48 1566.48 2300.74 1566.67 2301.01 1566.63C2301.58 1570.25 2302.12 1573.88 2302.62 1577.53C2302.35 1577.56 2302.16 1577.82 2302.19 1578.09C2302.74 1582.06 2303.24 1586.04 2303.7 1590.04C2303.74 1590.31 2303.98 1590.51 2304.26 1590.48C2304.68 1594.12 2305.06 1597.76 2305.41 1601.42C2305.13 1601.44 2304.93 1601.69 2304.96 1601.96C2305.33 1605.95 2305.67 1609.94 2305.96 1613.94C2305.98 1614.22 2306.22 1614.42 2306.5 1614.4C2306.76 1618.07 2306.99 1621.74 2307.19 1625.43C2306.91 1625.44 2306.7 1625.68 2306.72 1625.95C2306.92 1629.94 2307.09 1633.93 2307.22 1637.93C2307.23 1638.21 2307.46 1638.42 2307.73 1638.41C2307.84 1642.09 2307.92 1645.77 2307.96 1649.46Z" stroke="#7D0B03" stroke-opacity="0.3" stroke-linecap="round" stroke-dasharray="12 12"/>
<g filter="url(#filter0_f_1_887)">
<circle cx="1596" cy="1596" r="590" fill="#7D0B03" fill-opacity="0.56"/>
</g>
<ellipse cx="1596.5" cy="1656" rx="677.5" ry="605" fill="url(#paint0_linear_1_887)" fill-opacity="0.2"/>
<defs>
<filter id="filter0_f_1_887" x="0.700012" y="0.700012" width="3190.6" height="3190.6" filterUnits="userSpaceOnUse" color-interpolation-filters="sRGB">
<feFlood flood-opacity="0" result="BackgroundImageFix"/>
<feBlend mode="normal" in="SourceGraphic" in2="BackgroundImageFix" result="shape"/>
<feGaussianBlur stdDeviation="502.65" result="effect1_foregroundBlur_1_887"/>
</filter>
<linearGradient id="paint0_linear_1_887" x1="1596.5" y1="1051" x2="1596.5" y2="2261" gradientUnits="userSpaceOnUse">
<stop stop-color="#FF9A93" stop-opacity="0.58"/>
<stop offset="1" stop-color="#AA0B00" stop-opacity="0"/>
</linearGradient>
</defs>
</svg>
